# xmcd
#
# Track frame offsets: 
#        183
#        16178
#        31313
#        54228
#        72843
#        85440
#        104415
#        119165
#        133620
#        147253
#        162008
#        173598
#
# Disc length: 2439 seconds
#
# Revision: 3
# Processed by: cddbd v1.4PL0 Copyright (c) Steve Scherf et al.
# Submitted via: ExactAudioCopy v0.95a4
#
DISCID=9d09850c
DTITLE=A.J. Croce - A.J. Croce
DYEAR=1993
DGENRE=Blues
TTITLE0=He's Got A Way With Women
TTITLE1=Which Way Steinway
TTITLE2=I Wonder
TTITLE3=How'd We Get So Good At Saying Good-bye
TTITLE4=I Found Faith
TTITLE5=Keep On Lookin'
TTITLE6=She Wouldn't Give Me None
TTITLE7=I Know Better now
TTITLE8=Back Where I Began
TTITLE9=Smokin' Good Time
TTITLE10=Stuff You Gotta Watch
TTITLE11=If I Could Be With You
EXTD=
EXTT0=
EXTT1=
EXTT2=
EXTT3=
EXTT4=
EXTT5=
EXTT6=
EXTT7=
EXTT8=
EXTT9=
EXTT10=
EXTT11=
PLAYORDER=
